<?xml version="1.0" standalone="no"?>
<!DOCTYPE svg PUBLIC "-//W3C//DTD SVG 20010904//EN"
 "http://www.w3.org/TR/2001/REC-SVG-20010904/DTD/svg10.dtd">
<svg version="1.0" xmlns="http://www.w3.org/2000/svg"
 width="424.000000pt" height="424.000000pt" viewBox="0 0 424.000000 424.000000"
 preserveAspectRatio="xMidYMid meet">

<g transform="translate(0.000000,424.000000) scale(0.100000,-0.100000)"
fill="#000000" stroke="none">
<path d="M1960 3164 c-172 -45 -334 -178 -410 -335 -123 -257 -78 -533 119
-730 124 -123 247 -178 421 -186 126 -7 197 8 315 66 150 74 264 207 319 371
35 104 40 245 13 350 -60 231 -243 411 -472 465 -76 19 -234 18 -305 -1z m265
-210 c121 -31 224 -117 278 -232 30 -63 32 -74 32 -177 0 -106 -2 -114 -34
-180 -155 -314 -593 -324 -755 -16 -171 325 124 698 479 605z"/>
<path d="M1945 1583 c-168 -15 -414 -87 -578 -170 -297 -148 -547 -394 -689
-676 -67 -133 -68 -117 22 -197 44 -38 84 -70 88 -70 5 0 21 33 37 73 136 349
451 635 839 762 153 50 276 68 456 68 240 0 424 -41 628 -138 143 -69 243
-137 359 -249 143 -136 231 -264 302 -436 l37 -90 60 53 c75 67 104 97 104
111 0 16 -56 132 -98 201 -286 476 -830 771 -1407 763 -66 -1 -138 -3 -160 -5z"/>
</g>
</svg>
